<svg xmlns="http://www.w3.org/2000/svg" viewBox="0 0 40 34" shape-rendering="crispEdges"><rect x="19" y="0" width="2" height="2" fill="hsl(152, 40%, 38%)"/><rect x="18" y="2" width="4" height="2" fill="hsl(152, 40%, 38%)"/><rect x="17" y="4" width="6" height="2" fill="hsl(152, 40%, 38%)"/><rect x="10" y="6" width="20" height="2" fill="hsl(152, 40%, 38%)"/><rect x="8" y="8" width="24" height="2" fill="hsl(152, 40%, 38%)"/><rect x="6" y="10" width="28" height="12" fill="hsl(152, 40%, 38%)"/><rect x="8" y="22" width="24" height="2" fill="hsl(152, 40%, 38%)"/><rect x="8" y="24" width="3" height="6" fill="hsl(152, 40%, 38%)"/><rect x="15" y="24" width="3" height="6" fill="hsl(152, 40%, 38%)"/><rect x="22" y="24" width="3" height="6" fill="hsl(152, 40%, 38%)"/><rect x="29" y="24" width="3" height="6" fill="hsl(152, 40%, 38%)"/><rect x="8" y="30" width="3" height="1" fill="hsl(152, 40%, 38%)"/><rect x="15" y="30" width="3" height="1" fill="hsl(152, 40%, 38%)"/><rect x="22" y="30" width="3" height="1" fill="hsl(152, 40%, 38%)"/><rect x="29" y="30" width="3" height="1" fill="hsl(152, 40%, 38%)"/><rect x="11" y="14" width="6" height="1" fill="#0F0F0F"/><rect x="23" y="14" width="6" height="1" fill="#0F0F0F"/><g fill="#6B6B6B"><rect x="30" y="2" width="2" height="1" fill="#6B6B6B"/><rect x="32" y="4" width="2" height="1" fill="#6B6B6B"/><rect x="28" y="4" width="4" height="1" fill="#6B6B6B"/><rect x="30" y="6" width="2" height="1" fill="#6B6B6B"/><rect x="28" y="6" width="1" height="1" fill="#6B6B6B"/></g></svg>