<svg xmlns="http://www.w3.org/2000/svg" viewBox="0 0 16 16" width="16" height="16" shape-rendering="crispEdges"><g fill="#0B0E0C"><rect x="5" y="2" width="6" height="1"/><rect x="3" y="3" width="2" height="1"/><rect x="11" y="3" width="2" height="1"/><rect x="2" y="4" width="1" height="1"/><rect x="13" y="4" width="1" height="1"/><rect x="2" y="5" width="1" height="1"/><rect x="13" y="5" width="1" height="1"/><rect x="2" y="6" width="1" height="1"/><rect x="5" y="6" width="1" height="1"/><rect x="10" y="6" width="1" height="1"/><rect x="13" y="6" width="1" height="1"/><rect x="2" y="7" width="1" height="1"/><rect x="6" y="7" width="1" height="1"/><rect x="9" y="7" width="1" height="1"/><rect x="13" y="7" width="1" height="1"/><rect x="2" y="8" width="1" height="1"/><rect x="13" y="8" width="1" height="1"/><rect x="2" y="9" width="1" height="1"/><rect x="13" y="9" width="1" height="1"/><rect x="2" y="10" width="1" height="1"/><rect x="13" y="10" width="1" height="1"/><rect x="2" y="11" width="1" height="1"/><rect x="13" y="11" width="1" height="1"/><rect x="3" y="12" width="2" height="1"/><rect x="11" y="12" width="2" height="1"/><rect x="5" y="13" width="6" height="1"/></g><g fill="#064E3B"><rect x="5" y="3" width="6" height="1"/><rect x="3" y="4" width="2" height="1"/><rect x="11" y="4" width="2" height="1"/><rect x="3" y="5" width="1" height="1"/><rect x="12" y="5" width="1" height="1"/><rect x="3" y="6" width="1" height="1"/><rect x="12" y="6" width="1" height="1"/><rect x="3" y="7" width="1" height="1"/><rect x="12" y="7" width="1" height="1"/><rect x="3" y="8" width="1" height="1"/><rect x="12" y="8" width="1" height="1"/><rect x="3" y="9" width="1" height="1"/><rect x="12" y="9" width="1" height="1"/><rect x="3" y="10" width="1" height="1"/><rect x="12" y="10" width="1" height="1"/><rect x="3" y="11" width="2" height="1"/><rect x="11" y="11" width="2" height="1"/><rect x="5" y="12" width="6" height="1"/></g><g fill="#047857"><rect x="5" y="4" width="6" height="1"/><rect x="4" y="5" width="1" height="1"/><rect x="11" y="5" width="1" height="1"/><rect x="4" y="6" width="1" height="1"/><rect x="11" y="6" width="1" height="1"/><rect x="4" y="7" width="1" height="1"/><rect x="11" y="7" width="1" height="1"/><rect x="4" y="8" width="1" height="1"/><rect x="11" y="8" width="1" height="1"/><rect x="4" y="9" width="1" height="1"/><rect x="11" y="9" width="1" height="1"/><rect x="4" y="10" width="1" height="1"/><rect x="11" y="10" width="1" height="1"/><rect x="5" y="11" width="6" height="1"/></g><g fill="#10B981"><rect x="5" y="5" width="6" height="1"/><rect x="5" y="7" width="1" height="1"/><rect x="7" y="7" width="2" height="1"/><rect x="10" y="7" width="1" height="1"/><rect x="5" y="8" width="6" height="1"/><rect x="5" y="9" width="6" height="1"/><rect x="5" y="10" width="6" height="1"/></g><g fill="#6EE7B7"><rect x="6" y="6" width="4" height="1"/></g></svg>
